<?xml version="1.0" encoding="UTF-8" standalone="yes"?><svg xmlns="http://www.w3.org/2000/svg" xmlns:xlink="http://www.w3.org/1999/xlink" version="1.2" baseProfile="tiny-ps" viewBox="0 0 96 96"><title>wwuk_logo</title><g><g fill="#fec62a" transform="matrix(.1 0 0 -.1 0 96)"><path d="M130 678c72-145 130-266 130-270 0-5-6-8-14-8s-55-21-105-46l-91-45-15-29-15-29v-86l19-31c11-18 35-43 54-58l34-26 56-11 56-12 113 26 113 26 95 6c114 8 165 20 204 48l29 20 19 43 19 44-11 42-12 43-25 27-25 26 101 264c56 144 101 271 101 281v17H742l-30-72c-17-40-37-89-45-108l-14-35-49 99-48 98-50-101c-28-55-53-101-56-101s-27 50-54 110l-50 110H1l129-262zm439-240c1-5-8-8-19-8-23 0-24 4-8 33l11 22 8-20c4-11 8-23 8-27z"></path></g><g fill="#e1af28" transform="matrix(.1 0 0 -.1 0 96)"><path d="M130 678c72-145 130-266 130-270 0-5-6-8-14-8s-55-21-105-46l-91-45-15-29-15-29v-86l19-31c11-18 35-43 54-58l34-26 56-11 56-12 113 26 113 26 95 6c114 8 165 20 204 48l29 20 19 43 19 44-11 42-12 43-25 27-25 26 101 264c56 144 101 271 101 281v17H742l-30-72c-17-40-37-89-45-108l-14-35-49 99-48 98-50-101c-28-55-53-101-56-101s-27 50-54 110l-50 110H1l129-262zm250 75c35-76 64-140 66-142 1-2 27 45 56 104l54 107 47-103 48-102 8 9c5 5 32 66 61 137l52 127h129l-7-22c-10-33-175-462-178-466-2-1-23 2-48 8l-44 11-27 77c-15 42-32 84-37 92l-9 14-10-24c-5-14-21-50-34-81l-26-57-68-6c-37-4-76-9-85-12l-17-5-116 230C132 776 80 882 80 885s53 5 118 5h119l63-137zm189-315c1-5-8-8-19-8-23 0-24 4-8 33l11 22 8-20c4-11 8-23 8-27zm-109-53c0-3-14-35-30-72l-30-67-14 20c-7 10-25 40-40 66l-27 47 33 4c54 6 108 7 108 2zm123-7 16-13 24-73c14-40 27-75 30-78s24 23 48 57l42 62 19-23 19-23-3-30-3-30-27-20-28-21-137-2-138-2-120-32-120-32-53 5-53 4-16 15-15 16-5 45-5 45 22 22 22 22 19-40c11-22 35-57 54-78l34-39 1 60 1 60 17 50 17 50 20 2 20 3 34-60c19-32 46-74 61-92l27-33 51 108 51 107h28c16 0 37-6 46-12zm115-23c2-2-4-18-14-37l-17-33-13 35c-7 19-13 38-13 43l-1 7 28-6c15-4 28-8 30-9zm-508-76-13-52-18 34c-10 19-18 37-19 41 0 8 53 38 59 33 2-2-2-27-9-56zm365-150-100-8-85-20c-47-12-92-20-100-20-24 2 68 29 145 44l70 13h85l85-1-100-8z"></path></g><g fill="#bd9325" transform="matrix(.1 0 0 -.1 0 96)"><path d="M130 678c72-145 130-266 130-270 0-5-6-8-14-8s-55-21-105-46l-91-45-15-29-15-29v-86l19-31c11-18 35-43 54-58l34-26 56-11 56-12 113 26 113 26 95 6c114 8 165 20 204 48l29 20 19 43 19 44-11 42-12 43-25 27-25 26 101 264c56 144 101 271 101 281v17H742l-30-72c-17-40-37-89-45-108l-14-35-49 99-48 98-50-101c-28-55-53-101-56-101s-27 50-54 110l-50 110H1l129-262zm252 74 61-132 11 9c6 5 31 50 56 101l44 91 52-103 52-103 8 20c4 11 29 72 55 135l47 115 66 3 66 3v-9c0-12-177-473-184-480-3-2-25 1-49 7l-43 13-34 91-34 91-37-81-37-81-59-7c-32-3-70-9-85-11l-27-5-116 230C132 776 80 882 80 885s54 4 121 3l121-3 60-133zm187-314c1-5-8-8-19-8-23 0-24 4-8 33l11 22 8-20c4-11 8-23 8-27zM437 320c-18-38-35-69-39-70-4 0-23 28-42 63l-35 62 27 6c15 4 48 7 74 8l47 1-32-70zm157 48c8-13 24-52 36-88s23-66 25-68c1-1 20 23 41 55s40 60 42 63 12-6 23-19l19-23v-27c0-32-8-44-40-62l-25-13-160-7-160-7-90-27-90-27-59 4-59 4-18 23-19 23v78l22 22 21 21 20-39c25-49 66-104 78-104h9v106l16 47 16 47 20 11c11 6 21 9 22 7s12-23 25-48c31-59 83-129 96-130h10l44 100 43 100h78l14-22zm104-13c2-2-4-18-14-37l-17-33-13 30c-7 17-13 36-14 44v13l27-7c16-4 29-8 31-10zm-498-42c-4-16-11-41-15-57l-6-29-13 19c-7 10-16 29-20 41l-7 22 28 15c15 8 31 15 35 16h7l-9-27zm358-184-107-8-80-21c-43-11-90-20-103-19h-23l50 16c28 8 77 21 110 28l60 13h100l100-1-107-8z"></path></g><g fill="#8a6c21" transform="matrix(.1 0 0 -.1 0 96)"><path d="M130 678c72-145 130-266 130-270 0-5-6-8-14-8s-55-21-105-46l-91-45-15-29-15-29v-86l19-31c11-18 35-43 54-58l34-26 56-11 56-12 113 26 113 26 95 6c114 8 165 20 204 48l29 20 19 43 19 44-11 42-12 43-25 27-25 26 101 264c56 144 101 271 101 281v17H742l-30-72c-17-40-37-89-45-108l-14-35-49 99-48 98-50-101c-28-55-53-101-56-101s-27 50-54 110l-50 110H1l129-262zm235 115c25-54 53-116 64-138l18-40 53 105 53 105 52-104 52-104 52 129c29 71 56 133 61 137l7 8 65-3 64-3-92-240c-51-132-97-241-102-243-6-2-28 2-50 7l-40 11-32 90c-18 50-34 90-35 90s-18-36-36-80l-33-81-20-4c-12-2-53-6-91-9l-70-6-118 235L70 890h251l44-97zm204-355c1-5-8-8-19-8-23 0-24 4-8 33l11 22 8-20c4-11 8-23 8-27zM438 322l-32-72-10 3c-12 4-77 120-70 126 4 4 135 18 141 16 2-1-11-34-29-73zm170 21c11-27 25-67 31-90 7-24 13-43 15-43s21 27 42 60c22 33 43 60 48 60s15-8 22-17l13-18 1-36v-37l-27-18-28-18-160-7-160-7-90-26-90-26H109l-24 25-25 24v88l21 19 22 19 4-13c9-25 85-132 94-132h9v120l16 40 16 41 21 11 21 11 3-10c8-22 75-129 95-150 23-24 38-29 38-13 0 5 19 50 41 100l42 90h85l20-47zm70 21 22-6v-12c0-6-9-22-19-35l-18-24-12 33c-18 53-16 55 27 44zm-482-73c-6-27-14-52-18-56l-7-7-15 31c-22 41-20 48 12 65 39 22 40 21 28-33zm370-163-110-9-75-18c-42-11-96-22-121-25l-45-5 60 20c33 11 87 27 120 34l60 13h110l110-1-109-9z"></path></g><g fill="#5a471e" transform="matrix(.1 0 0 -.1 0 96)"><path d="M130 678c72-145 130-266 130-270 0-5-6-8-14-8s-55-21-105-46l-91-45-15-29-15-29v-86l19-31c11-18 35-43 54-58l34-26 56-11 56-12 113 26 113 26 95 6c114 8 165 20 204 48l29 20 19 43 19 44-11 42-12 43-25 27-25 26 101 264c56 144 101 271 101 281v17H742l-30-72c-17-40-37-89-45-108l-14-35-49 99-48 98-50-101c-28-55-53-101-56-101s-27 50-54 110l-50 110H1l129-262zm250 85c35-76 64-140 66-142s26 42 53 98c28 56 54 101 57 101s26-46 53-102l47-103 55 138 54 137h145l-19-47c-10-27-53-139-96-250l-77-201-46 13c-53 16-53 17-89 119l-27 78-10-23c-6-13-22-51-37-85l-27-61-87-7c-49-3-89-5-90-4-15 17-232 467-228 472 4 3 59 6 123 6h117l63-137zm189-325c1-5-8-8-19-8-23 0-24 4-8 33l11 22 8-20c4-11 8-23 8-27zm-99-42c0-11-71-159-74-155-15 15-77 132-73 136 10 9 147 27 147 19zm125-21c6-7 21-45 34-84l23-71 14 11c7 6 27 33 45 60l31 49 14-11c7-6 18-26 24-44l11-34-11-21-12-22-33-14-34-14H482l-74-15c-40-8-107-24-148-35l-75-21-38 7-38 6-26 22-25 22-2 41-1 41 19 21c11 12 22 21 25 21s17-20 29-44c13-24 37-56 53-72l29-28-6 31-6 30 16 64 17 63 16 18c25 28 36 22 70-40 17-31 45-72 61-91l29-35 51 107 50 106 39-6 38-5 10-13zm102-15c9 0 0-29-16-54l-19-29-10 34c-5 19-13 42-17 51l-7 17 34-9c18-6 34-10 35-10zm-491-37c-4-9-10-36-13-60s-9-43-13-43c-8 0-40 66-40 84v13l23 11c12 6 28 11 36 11l13 1-6-17zm432-184 47-2-125-12c-69-7-167-22-219-34S237 70 226 72l-21 3 105 29 105 29 75 7c41 4 81 6 88 4 8-2 35-5 60-5z"></path></g><g fill="#201a1a" transform="matrix(.1 0 0 -.1 0 96)"><path d="M130 678c72-145 130-266 130-270 0-5-6-8-14-8s-55-21-105-46l-91-45-15-29-15-29v-86l19-31c11-18 35-43 54-58l34-26 56-11 56-12 113 26 113 26 95 6c114 8 165 20 204 48l29 20 19 43 19 44-11 42-12 43-25 27-25 26 101 264c56 144 101 271 101 281v17H742l-30-72c-17-40-37-89-45-108l-14-35-49 99-48 98-50-101c-28-55-53-101-56-101s-27 50-54 110l-50 110H1l129-262zm253 85c33-73 63-133 67-133 3 0 26 41 50 91 25 50 48 93 52 95 4 3 30-39 57-93l50-98 11 30c6 17 30 77 54 135l42 105 72 3 72 3v-8c-1-20-190-498-197-497-30 1-84 18-91 28-5 6-22 47-38 90l-28 80-37-81-37-80-87-7c-48-4-88-6-90-4-6 6-235 468-235 473 0 3 57 4 126 3l126-3 61-132zm186-325c1-5-8-8-19-8-23 0-24 4-8 33l11 22 8-20c4-11 8-23 8-27zm-99-47c0-8-59-140-67-150-5-6-28 26-58 82-15 27-24 51-21 55 7 6 76 19 119 21l27 1v-9zm124-11c4-4 21-43 36-86l27-77 43 63 43 63 19-23c22-27 32-64 24-85-3-8-19-23-36-34l-31-18-147-6-147-5-80-22c-44-12-102-27-130-32l-50-10-43 11-44 12-14 34c-8 19-14 43-14 53 0 20 36 72 50 72 4 0 22-24 38-53s36-58 44-65l15-12 7 61 6 61 19 44 20 44h36l27-48c14-26 41-67 58-91l32-43 7 8c4 5 27 53 51 107l44 99 40-7c23-3 45-10 50-15zm92-16 23-6-21-42-21-41-12 30c-7 17-16 41-20 54l-7 24 17-7c9-3 28-9 41-12zm-489-82c-6-34-15-62-18-62-9 0-39 64-39 82v14l33 16c17 9 33 15 34 14s-3-30-10-64zm448-141 40-7-55-7c-30-4-77-7-103-7h-48L368 94 257 69l-31 3-31 3 108 29c154 41 259 53 342 37z"></path></g></g></svg>